<svg width="145" height="49" viewBox="0 0 145 49" fill="none" xmlns="http://www.w3.org/2000/svg">
<g clip-path="url(#clip0_63_938)">
<path d="M26.1754 33.2952V24.3965H19.7833V20.8018H37.0314V24.3965H30.7759V33.2952H26.1754ZM37.0314 6.75254V10.3473H24.4141V13.735H37.0314V17.3297H21.6356C21.3811 17.3494 21.1254 17.3138 20.8858 17.2252C20.6461 17.1366 20.428 16.9971 20.2463 16.8162C19.8939 16.3036 19.7301 15.6827 19.7833 15.061V6.75254H37.0314Z" fill="#3DB349"/>
<path d="M55.4189 4.0086H42.8927V0H60.1636V10.8914H47.6906V13.5281H60.1636V17.3604H44.7223C44.4642 17.3815 44.2048 17.3387 43.9667 17.2359C43.7287 17.1331 43.519 16.9732 43.3558 16.7702C42.9887 16.0305 42.8286 15.2037 42.8927 14.3789V6.59925H55.4189V4.0086ZM49.3456 33.2952V24.3965H42.9003V20.8018H60.1485V24.3965H53.9006V33.2952H49.3456Z" fill="#3DB349"/>
<path d="M71.3615 6.75254V13.9726H83.7131V17.5673H68.5754C68.0816 17.6123 67.5903 17.458 67.2089 17.1381C66.8589 16.6362 66.6974 16.0248 66.7534 15.4136V6.75254H71.3615ZM73.0165 33.3641V24.4578H66.6016V20.8708H83.8497V24.4578H77.5942V33.3641H73.0165Z" fill="#1652A1"/>
<path d="M106.934 21.9515C107.004 22.5914 106.84 23.235 106.471 23.7604C106.046 24.1145 105.502 24.2877 104.953 24.2432H91.5307C91.0054 24.2866 90.4836 24.1247 90.0731 23.791C89.6956 23.2574 89.5205 22.6046 89.5796 21.9515V6.75254H94.4079V13.4438H102.113V6.75254H106.934V21.9515ZM94.4079 20.4186H102.113V17.1075H94.4079V20.4186ZM111.231 6.75254H115.33V24.4732H111.231V6.75254Z" fill="#1652A1"/>
<path d="M34.3516 47.6817V38.6681H36.0369V42.6307L39.0736 38.6681H41.1309L37.5856 43.1366L41.184 47.6817H39.0736L36.0369 43.7574V47.6817H34.3516Z" fill="#969696"/>
<path d="M42.436 41.3124C42.6771 40.7322 43.0366 40.2099 43.4912 39.7794C43.9318 39.363 44.4472 39.0352 45.0095 38.8137C46.1564 38.3743 47.4231 38.3743 48.57 38.8137C49.1358 39.0353 49.652 39.3689 50.0883 39.7948C50.533 40.232 50.8889 40.7527 51.136 41.3277C51.3863 41.8946 51.5156 42.5083 51.5155 43.1289C51.5165 43.7319 51.4058 44.3298 51.1891 44.8918C50.9808 45.4317 50.6715 45.9261 50.2781 46.348C49.8254 46.8259 49.2836 47.2088 48.6839 47.4747C48.0824 47.7371 47.4335 47.8702 46.7784 47.8656C46.1218 47.8686 45.4722 47.7301 44.8729 47.4594C44.2674 47.186 43.7226 46.7924 43.271 46.302C42.8966 45.8728 42.601 45.3797 42.398 44.8458C42.2004 44.2901 42.1002 43.7039 42.1019 43.1136C42.0943 42.4968 42.2078 41.8846 42.436 41.3124V41.3124ZM44.0302 44.3246C44.1721 44.6869 44.3866 45.0157 44.6603 45.2903C44.937 45.5812 45.2705 45.8108 45.6396 45.9648C45.993 46.1241 46.3762 46.2051 46.7632 46.2024C47.163 46.2145 47.5609 46.1415 47.931 45.9884C48.3011 45.8352 48.6352 45.6052 48.9116 45.3133C49.1947 45.0228 49.4167 44.6775 49.5641 44.2982C49.7115 43.9188 49.7814 43.5132 49.7695 43.1059C49.775 42.7387 49.6998 42.3748 49.5493 42.0405C49.4077 41.6908 49.1987 41.3729 48.9344 41.1054C48.6691 40.7888 48.3354 40.5378 47.959 40.3717C47.5826 40.2057 47.1735 40.1289 46.7632 40.1473C46.3844 40.1402 46.0079 40.2079 45.6548 40.3466C45.3073 40.4868 44.994 40.7012 44.7362 40.9751C44.4334 41.2498 44.1926 41.587 44.0302 41.9639C43.873 42.3317 43.7929 42.7283 43.7949 43.1289C43.8022 43.5384 43.8819 43.9433 44.0302 44.3246V44.3246Z" fill="#969696"/>
<path d="M58.3713 43.0216C57.9783 43.5096 57.4494 43.8674 56.8529 44.0487L59.5935 47.6817H57.4678L54.9322 44.2173H54.8336V47.6817H53.1406V38.6681H55.4181C55.8185 38.6621 56.2188 38.6775 56.6176 38.7141C56.9707 38.7525 57.3119 38.8648 57.6197 39.0436C58.0235 39.2648 58.3517 39.6041 58.561 40.0171C58.8007 40.433 58.9216 40.9079 58.9103 41.389C58.9219 41.9796 58.7316 42.5562 58.3713 43.0216V43.0216ZM56.8529 40.4846C56.4716 40.2775 56.0397 40.1845 55.6079 40.2163H54.8487V42.669H55.6079C56.0483 42.7072 56.49 42.6111 56.8757 42.3931C57.0159 42.2846 57.1264 42.1418 57.1968 41.9782C57.2672 41.8146 57.2952 41.6355 57.2781 41.458C57.2903 41.2716 57.2565 41.0851 57.1797 40.9152C57.1028 40.7452 56.9853 40.5973 56.8377 40.4846H56.8529Z" fill="#969696"/>
<path d="M60.7324 47.6817V38.6681H65.7429V40.201H62.4026V42.3624H65.7277V43.8954H62.4026V46.0644H65.7277V47.6587L60.7324 47.6817Z" fill="#969696"/>
<path d="M68.2406 47.6817H66.4414L70.0398 38.6681H71.5582L75.1566 47.6817H73.3118L72.3477 45.2213H69.2275L68.2406 47.6817ZM70.799 41.0594L69.8425 43.5658H71.7404L70.799 41.0594Z" fill="#969696"/>
<path d="M80.4707 47.6817V38.6681H82.7026L85.1168 44.9454L87.5081 38.6681H89.7325V47.6817H88.1231V41.3277L85.7089 47.6817H84.517L82.1029 41.389V47.7047L80.4707 47.6817Z" fill="#969696"/>
<path d="M91.7889 41.3124C92.03 40.7322 92.3896 40.2099 92.8441 39.7794C93.2843 39.3624 93.7998 39.0345 94.3625 38.8137C95.5094 38.3743 96.776 38.3743 97.9229 38.8137C98.4907 39.0315 99.0076 39.3655 99.4413 39.7948C99.8906 40.2297 100.249 40.7509 100.497 41.3277C100.744 41.8951 100.871 42.5088 100.868 43.1289C100.873 43.7323 100.762 44.3308 100.542 44.8918C100.339 45.4328 100.032 45.9278 99.6386 46.348C99.183 46.8225 98.6419 47.2049 98.0444 47.4747C97.4403 47.7371 96.7889 47.8702 96.1313 47.8656C95.4748 47.8679 94.8254 47.7294 94.2258 47.4594C93.6172 47.1877 93.0697 46.7939 92.6164 46.302C92.242 45.8728 91.9464 45.3797 91.7434 44.8458C91.5433 44.2905 91.4406 43.7044 91.4397 43.1136C91.4334 42.4954 91.5522 41.8825 91.7889 41.3124V41.3124ZM93.3756 44.3246C93.5175 44.6869 93.732 45.0157 94.0057 45.2903C94.281 45.5793 94.6116 45.8088 94.9774 45.9648C95.3308 46.1241 95.7139 46.2051 96.1009 46.2024C96.5019 46.2141 96.9008 46.1411 97.272 45.9879C97.6433 45.8348 97.9788 45.605 98.257 45.3133C98.5401 45.0228 98.762 44.6775 98.9095 44.2982C99.0569 43.9188 99.1268 43.5132 99.1148 43.1059C99.1168 42.7391 99.0417 42.376 98.8947 42.0405C98.7531 41.6908 98.5441 41.3729 98.2798 41.1054C98.0078 40.7859 97.6747 40.5252 97.3004 40.339C96.9201 40.1819 96.5117 40.1062 96.1009 40.1167C95.7222 40.1104 95.3459 40.178 94.9926 40.316C94.6451 40.4562 94.3317 40.6706 94.074 40.9445C93.7845 41.2242 93.5546 41.5607 93.3983 41.9332C93.2479 42.3028 93.1706 42.6986 93.1706 43.0982C93.1646 43.5162 93.234 43.9318 93.3756 44.3246V44.3246Z" fill="#969696"/>
<path d="M106.958 39.3272C107.225 39.5632 107.436 39.8578 107.575 40.1885C107.713 40.5192 107.774 40.8774 107.755 41.2357C107.756 41.5219 107.693 41.8047 107.573 42.0635C107.446 42.3335 107.265 42.5738 107.041 42.7686C107.405 42.9667 107.703 43.2678 107.899 43.6348C108.116 44.0031 108.226 44.4251 108.218 44.8534C108.217 45.2742 108.126 45.6898 107.952 46.0721C107.797 46.4296 107.566 46.7487 107.276 47.0072C106.941 47.2746 106.553 47.4655 106.138 47.5667C105.705 47.653 105.265 47.6916 104.824 47.6817H102.547V38.6681H104.718C105.517 38.6227 106.308 38.8554 106.958 39.3272V39.3272ZM105.037 46.1181C105.446 46.1536 105.857 46.0628 106.214 45.8575C106.336 45.7533 106.432 45.6209 106.492 45.4715C106.553 45.322 106.577 45.16 106.563 44.9991C106.577 44.8161 106.55 44.6322 106.484 44.4611C106.419 44.29 106.316 44.1359 106.183 44.0103C105.848 43.7764 105.443 43.6655 105.037 43.6961H104.171V46.1181H105.037ZM104.384 42.2858C104.83 42.3214 105.278 42.2478 105.69 42.0712C105.8 41.9728 105.89 41.853 105.954 41.7189C106.018 41.5847 106.055 41.439 106.062 41.2903C106.069 41.1416 106.047 40.993 105.996 40.8532C105.945 40.7135 105.867 40.5855 105.766 40.4769C105.461 40.3037 105.113 40.2213 104.764 40.2393H104.209V42.2628L104.384 42.2858Z" fill="#969696"/>
<path d="M109.873 47.6817V38.6681H111.596V47.6817H109.873Z" fill="#969696"/>
<path d="M113.518 47.6817V38.6681H115.211V46.0874H118.08V47.6817H113.518Z" fill="#969696"/>
<path d="M119.59 47.6817V38.6681H121.283V47.6817H119.59Z" fill="#969696"/>
<path d="M124.503 47.6817V40.224H122.719V38.6911H127.987V40.224H126.173V47.6817H124.503Z" fill="#969696"/>
<path d="M133.156 47.6817H131.463V44.3552L128.639 38.6681H130.575L132.374 42.5004L134.15 38.6681H136.033L133.156 44.4549V47.6817Z" fill="#969696"/>
<path d="M11.8726 44.2939L19.525 37.1428H10.1341L4.75927 44.2939H11.8726L9.20797 34.4908H11.3868M8.91189 44.3092C8.91189 45.1612 8.66167 45.994 8.19286 46.7024C7.72405 47.4107 7.05772 47.9628 6.27812 48.2889C5.49852 48.6149 4.64067 48.7002 3.81305 48.534C2.98543 48.3678 2.22521 47.9575 1.62853 47.3551C1.03186 46.7527 0.625511 45.9852 0.460888 45.1496C0.296264 44.314 0.380755 43.4479 0.703676 42.6608C1.0266 41.8737 1.57344 41.201 2.27506 40.7277C2.97669 40.2543 3.80157 40.0017 4.6454 40.0017C5.20568 40.0017 5.76048 40.1131 6.27812 40.3296C6.79575 40.5461 7.26609 40.8634 7.66227 41.2634C8.05845 41.6634 8.37271 42.1382 8.58713 42.6608C8.80154 43.1834 8.91189 43.7436 8.91189 44.3092V44.3092ZM21.142 40.0017C20.2982 40.0017 19.4733 40.2543 18.7717 40.7277C18.07 41.201 17.5232 41.8737 17.2003 42.6608C16.8774 43.4479 16.7929 44.314 16.9575 45.1496C17.1221 45.9852 17.5285 46.7527 18.1251 47.3551C18.7218 47.9575 19.482 48.3678 20.3096 48.534C21.1373 48.7002 21.9951 48.6149 22.7747 48.2889C23.5543 47.9628 24.2206 47.4107 24.6895 46.7024C25.1583 45.994 25.4085 45.1612 25.4085 44.3092C25.4085 43.7436 25.2981 43.1834 25.0837 42.6608C24.8693 42.1382 24.555 41.6634 24.1589 41.2634C23.7627 40.8634 23.2923 40.5461 22.7747 40.3296C22.2571 40.1131 21.7023 40.0017 21.142 40.0017V40.0017ZM21.142 44.3092L18.8645 34.1919H16.7844L21.142 44.3092Z" stroke="#9B9B9A" stroke-linecap="round" stroke-linejoin="round"/>
<path d="M129.118 27.1098C130.031 29.0731 131.262 30.8684 132.762 32.4214M130.158 13.4361C130.153 13.8157 130.037 14.1853 129.824 14.4982C129.611 14.811 129.311 15.0529 128.962 15.1932C128.612 15.3335 128.229 15.3659 127.862 15.2862C127.494 15.2065 127.158 15.0184 126.897 14.7457C126.635 14.473 126.46 14.128 126.393 13.7545C126.326 13.381 126.37 12.9958 126.52 12.6477C126.67 12.2997 126.919 12.0045 127.236 11.7996C127.552 11.5947 127.922 11.4894 128.298 11.4969C128.799 11.507 129.275 11.7165 129.623 12.0797C129.972 12.443 130.164 12.9305 130.158 13.4361V13.4361ZM133.498 22.6337C132.299 14.3022 126.764 17.6593 126.764 17.6593C125.512 24.8181 120.076 22.1431 120.076 22.1431L133.498 22.6337ZM124.563 33.2798C124.563 33.2798 124.168 28.0602 128.207 25.9448C132.246 23.8293 130.606 20.7941 129.558 17.0078L127.22 17.552C127.22 17.552 127.387 24.5115 127.979 26.0598L124.563 33.2798Z" stroke="#9B9B9A" stroke-linecap="round" stroke-linejoin="round"/>
<path d="M4.75832 33.2875C4.75832 33.2875 4.49262 19.4298 16.0926 17.5673" stroke="#9B9B9A" stroke-linecap="round" stroke-dasharray="4 3"/>
<path d="M137.492 19.8207C137.492 19.8207 151.468 28.7194 140.286 42.2628" stroke="#9B9B9A" stroke-linecap="round" stroke-dasharray="4 3"/>
</g>
<defs>
<clipPath id="clip0_63_938">
<rect width="145" height="49" fill="white"/>
</clipPath>
</defs>
</svg>
