<svg width="36" height="35" viewBox="0 0 36 35" fill="none" xmlns="http://www.w3.org/2000/svg">
<g clip-path="url(#clip0_123_2604)">
<path d="M7.79167 29.8958C6.43796 29.8958 5.13969 29.3581 4.18248 28.4009C3.22526 27.4436 2.6875 26.1454 2.6875 24.7917C2.6875 23.438 3.22526 22.1397 4.18248 21.1825C5.13969 20.2253 6.43796 19.6875 7.79167 19.6875C9.14538 19.6875 10.4436 20.2253 11.4009 21.1825C12.3581 22.1397 12.8958 23.438 12.8958 24.7917C12.8958 26.1454 12.3581 27.4436 11.4009 28.4009C10.4436 29.3581 9.14538 29.8958 7.79167 29.8958ZM7.79167 17.5C5.8578 17.5 4.00313 18.2682 2.63568 19.6357C1.26823 21.0031 0.5 22.8578 0.5 24.7917C0.5 26.7255 1.26823 28.5802 2.63568 29.9477C4.00313 31.3151 5.8578 32.0833 7.79167 32.0833C9.72554 32.0833 11.5802 31.3151 12.9477 29.9477C14.3151 28.5802 15.0833 26.7255 15.0833 24.7917C15.0833 22.8578 14.3151 21.0031 12.9477 19.6357C11.5802 18.2682 9.72554 17.5 7.79167 17.5ZM22.0833 14.5833H28.2083V11.9583H23.5417L20.7125 7.18958C20.2896 6.46042 19.4583 5.97917 18.5833 5.97917C17.8979 5.97917 17.2708 6.25625 16.8333 6.70833L11.4375 12.0896C10.9854 12.5417 10.7083 13.125 10.7083 13.8542C10.7083 14.7729 11.1896 15.5458 11.9479 15.9979L16.8333 18.9583V26.25H19.4583V16.7708L16.1771 14.3646L19.5604 10.9375L22.0833 14.5833ZM28.2083 29.8958C26.8546 29.8958 25.5564 29.3581 24.5991 28.4009C23.6419 27.4436 23.1042 26.1454 23.1042 24.7917C23.1042 23.438 23.6419 22.1397 24.5991 21.1825C25.5564 20.2253 26.8546 19.6875 28.2083 19.6875C29.562 19.6875 30.8603 20.2253 31.8175 21.1825C32.7747 22.1397 33.3125 23.438 33.3125 24.7917C33.3125 26.1454 32.7747 27.4436 31.8175 28.4009C30.8603 29.3581 29.562 29.8958 28.2083 29.8958ZM28.2083 17.5C26.2745 17.5 24.4198 18.2682 23.0523 19.6357C21.6849 21.0031 20.9167 22.8578 20.9167 24.7917C20.9167 26.7255 21.6849 28.5802 23.0523 29.9477C24.4198 31.3151 26.2745 32.0833 28.2083 32.0833C29.1659 32.0833 30.1141 31.8947 30.9987 31.5283C31.8834 31.1618 32.6872 30.6247 33.3643 29.9477C34.0414 29.2706 34.5785 28.4667 34.945 27.5821C35.3114 26.6974 35.5 25.7492 35.5 24.7917C35.5 23.8341 35.3114 22.8859 34.945 22.0013C34.5785 21.1166 34.0414 20.3128 33.3643 19.6357C32.6872 18.9586 31.8834 18.4215 30.9987 18.055C30.1141 17.6886 29.1659 17.5 28.2083 17.5ZM23.8333 7C25.2917 7 26.4583 5.83333 26.4583 4.375C26.4583 2.91667 25.2917 1.75 23.8333 1.75C22.375 1.75 21.2083 2.91667 21.2083 4.375C21.2083 5.83333 22.375 7 23.8333 7Z" fill="white" fill-opacity="0.7"/>
</g>
<defs>
<clipPath id="clip0_123_2604">
<rect width="35" height="35" fill="white" transform="translate(0.5)"/>
</clipPath>
</defs>
</svg>
