<svg width="35" height="35" viewBox="0 0 35 35" fill="none" xmlns="http://www.w3.org/2000/svg">
<path d="M20.5917 14.5834H27.7083V11.9584H22.4292L19.5125 7.1021C19.075 6.37294 18.2875 5.8771 17.3833 5.8771C17.1208 5.8771 16.8875 5.92085 16.6542 5.99377L8.75 8.45835V16.0417H11.375V10.6896L14.4521 9.7271L8.75 32.0833H11.375L15.5604 20.2563L18.9583 24.7917V32.0833H21.5833V22.7354L17.9521 16.1146L19.0167 11.9292L20.5917 14.5834ZM20.4167 5.54169C21.875 5.54169 23.0417 4.37502 23.0417 2.91669C23.0417 1.45835 21.875 0.291687 20.4167 0.291687C18.9583 0.291687 17.7917 1.45835 17.7917 2.91669C17.7917 4.37502 18.9583 5.54169 20.4167 5.54169Z" fill="white"/>
</svg>
